<svg xmlns="http://www.w3.org/2000/svg" width="45.031" height="44" viewBox="0 0 45.031 44">
  <defs>
    <style>
      .cls-1 {
        fill: #b3b3b3;
        fill-rule: evenodd;
      }
    </style>
  </defs>
  <path id="Composite_Path" data-name="Composite Path" class="cls-1" d="M522,642.749H500.618a1.988,1.988,0,0,1-1.789-1.105L490.105,624.2a1,1,0,0,1,.895-1.447h15a1,1,0,1,1,0,2H492.618l8,16h19.764L512.105,624.2a1,1,0,0,1,1.789-.895l9,18A1,1,0,0,1,522,642.749Zm-9-8a1,1,0,0,1-1-1v-14h-4v14a1,1,0,0,1-2,0v-15a1,1,0,0,1,1-1h6a1,1,0,0,1,1,1v15A1,1,0,0,1,513,634.752Zm-30.2,8h-2.845a2,2,0,0,1-1.621-3.169l11.855-16.41a1,1,0,0,1,1.622,1.171L479.955,640.75h2.336l9.9-13.585a1,1,0,0,1,1.616,1.178l-10.2,14A1,1,0,0,1,482.8,642.749Zm0.2,18a1,1,0,0,1-1-1V641.75a1,1,0,0,1,2,0v17.994A1,1,0,0,1,483,660.744Zm20,0a1,1,0,0,1-1-1V641.75a1,1,0,0,1,2,0v17.994A1,1,0,0,1,503,660.744Zm16,0a1,1,0,0,1-1-1V641.75a1,1,0,0,1,2,0v17.994A1,1,0,0,1,519,660.744Zm2,1H480a1,1,0,1,1,0-2h41A1,1,0,1,1,521,661.743Zm-27,0a1,1,0,0,1-1-1v-15h-2v15a1,1,0,0,1-2,0v-16a1,1,0,0,1,1-1h4a1,1,0,0,1,1,1v16A1,1,0,0,1,494,661.743Zm20-9h-5a1,1,0,0,1-1-1v-5a1,1,0,0,1,1-1h5a1,1,0,0,1,1,1v5A1,1,0,0,1,514,652.746Zm-4-2h3v-3h-3v3Z" transform="translate(-477.969 -617.75)"/>
</svg>
