<svg xmlns="http://www.w3.org/2000/svg" width="36" height="45" viewBox="0 0 36 45">
  <defs>
    <style>
      .cls-1 {
        fill: #b2b2b2;
        fill-rule: evenodd;
      }
    </style>
  </defs>
  <path id="Composite_Path" data-name="Composite Path" class="cls-1" d="M313,663a1,1,0,0,1-.606-0.2C311.684,662.255,295,649.4,295,636a18,18,0,0,1,36,0c0,13.341-16.683,26.251-17.393,26.794A0.991,0.991,0,0,1,313,663Zm0-43a16.019,16.019,0,0,0-16,16c0,11.039,13.006,22.281,16,24.72,2.991-2.448,16-13.733,16-24.72A16.019,16.019,0,0,0,313,620Zm5.819,25.023a1,1,0,0,1-.589-0.191L313,641.025l-5.231,3.8a1,1,0,0,1-1.538-1.119l2-6.12L303,633.811a1,1,0,0,1,.586-1.811h6.466l2-6.15a1,1,0,0,1,1.9,0l2,6.15h6.466a1,1,0,0,1,.585,1.811l-5.227,3.771,2,6.132A1,1,0,0,1,318.819,645.023ZM313,638.789a1,1,0,0,1,.588.191l3.325,2.419-1.268-3.891a1,1,0,0,1,.366-1.121L319.32,634h-4.1a1,1,0,0,1-.952-0.691L313,629.4l-1.272,3.914a1,1,0,0,1-.951.691h-4.1l3.31,2.389a1,1,0,0,1,.365,1.121l-1.266,3.883,3.325-2.414A1,1,0,0,1,313,638.789Z" transform="translate(-295 -618)"/>
</svg>
