<svg xmlns="http://www.w3.org/2000/svg" width="13" height="13" viewBox="0 0 13 13">
  <defs>
    <style>
      .cls-1 {
        fill: #fd8300;
        fill-rule: evenodd;
      }
    </style>
  </defs>
  <path id="phone" class="cls-1" d="M606.476,26.6a0.484,0.484,0,0,0-.356.2,0.642,0.642,0,0,0-.127.382,11.6,11.6,0,0,0,1.6,5.953,11.863,11.863,0,0,0,4.251,4.248,11.624,11.624,0,0,0,5.956,1.6,0.646,0.646,0,0,0,.382-0.127,0.482,0.482,0,0,0,.2-0.356L619,35.862a0.573,0.573,0,0,0-.051-0.407,0.549,0.549,0,0,0-.306-0.28l-2.85-1.221a0.553,0.553,0,0,0-.37-0.025,0.757,0.757,0,0,0-.343.2l-1.247,1.526a8.935,8.935,0,0,1-2.66-1.857,9.327,9.327,0,0,1-1.846-2.645l1.528-1.247a0.764,0.764,0,0,0,.2-0.343,0.55,0.55,0,0,0-.025-0.369l-1.222-2.849a0.548,0.548,0,0,0-.28-0.305,0.575,0.575,0,0,0-.407-0.051Z" transform="translate(-606 -26)"/>
</svg>
