<svg xmlns="http://www.w3.org/2000/svg" width="31.938" height="45.438" viewBox="0 0 31.938 45.438">
  <defs>
    <style>
      .cls-1 {
        fill: #b2b2b2;
        fill-rule: evenodd;
      }
    </style>
  </defs>
  <path id="Path" class="cls-1" d="M701.971,654H672.029a1,1,0,0,1-.783-1.622L678.693,643H673.5a1,1,0,0,1-.732-1.681L681.439,632H677.5a1,1,0,0,1-.818-1.576l9.5-13.5a1.038,1.038,0,0,1,1.636,0l9.4,13.363a1,1,0,0,1,.3.713,0.98,0.98,0,0,1-1.01,1h-3.949l8.564,9.2a1,1,0,0,1,.395.8,0.978,0.978,0,0,1-1.01,1h-5.2l7.447,9.378A1,1,0,0,1,701.971,654Zm-27.87-2h25.8l-7.447-9.378a1,1,0,0,1,.783-1.622H698.2l-8.671-9.319a1,1,0,0,1,.732-1.681h4.309L687,619.238,679.426,630h4.309a1,1,0,0,1,.732,1.681L675.8,641h4.969a1,1,0,0,1,.783,1.622ZM689,662h-4a1,1,0,0,1-1-1v-8a1,1,0,0,1,2,0v7h2v-7a1,1,0,0,1,2,0v8A1,1,0,0,1,689,662Z" transform="translate(-671.031 -616.562)"/>
</svg>
